<mxfile host="65bd71144e">
    <diagram id="CWb_n4CAjd2z9gFYFfTj" name="Class">
        <mxGraphModel dx="832" dy="353" grid="0" gridSize="10" guides="1" tooltips="1" connect="1" arrows="1" fold="1" page="1" pageScale="1" pageWidth="1169" pageHeight="827" math="0" shadow="0">
            <root>
                <mxCell id="0"/>
                <mxCell id="1" parent="0"/>
                <mxCell id="109" value="Login" style="rounded=0;whiteSpace=wrap;html=1;" parent="1" vertex="1">
                    <mxGeometry x="434" y="263" width="120" height="60" as="geometry"/>
                </mxCell>
                <mxCell id="110" value="Help" style="rounded=0;whiteSpace=wrap;html=1;" parent="1" vertex="1">
                    <mxGeometry x="434" y="186" width="120" height="60" as="geometry"/>
                </mxCell>
                <mxCell id="111" value="Process" style="rounded=0;whiteSpace=wrap;html=1;" parent="1" vertex="1">
                    <mxGeometry x="286" y="263" width="120" height="60" as="geometry"/>
                </mxCell>
                <mxCell id="112" value="Layers" style="rounded=0;whiteSpace=wrap;html=1;" parent="1" vertex="1">
                    <mxGeometry x="284" y="186" width="120" height="60" as="geometry"/>
                </mxCell>
                <mxCell id="113" value="Menu" style="rounded=0;whiteSpace=wrap;html=1;" parent="1" vertex="1">
                    <mxGeometry x="134" y="263" width="120" height="60" as="geometry"/>
                </mxCell>
                <mxCell id="114" value="Map" style="rounded=0;whiteSpace=wrap;html=1;" parent="1" vertex="1">
                    <mxGeometry x="134" y="186" width="120" height="60" as="geometry"/>
                </mxCell>
                <mxCell id="115" value="Table" style="rounded=0;whiteSpace=wrap;html=1;" parent="1" vertex="1">
                    <mxGeometry x="434" y="414" width="120" height="60" as="geometry"/>
                </mxCell>
                <mxCell id="116" value="Geocoder" style="rounded=0;whiteSpace=wrap;html=1;" parent="1" vertex="1">
                    <mxGeometry x="434" y="337" width="120" height="60" as="geometry"/>
                </mxCell>
                <mxCell id="117" value="Builder" style="rounded=0;whiteSpace=wrap;html=1;" parent="1" vertex="1">
                    <mxGeometry x="286" y="414" width="120" height="60" as="geometry"/>
                </mxCell>
                <mxCell id="118" value="Print" style="rounded=0;whiteSpace=wrap;html=1;" parent="1" vertex="1">
                    <mxGeometry x="284" y="337" width="120" height="60" as="geometry"/>
                </mxCell>
                <mxCell id="119" value="Import" style="rounded=0;whiteSpace=wrap;html=1;" parent="1" vertex="1">
                    <mxGeometry x="134" y="414" width="120" height="60" as="geometry"/>
                </mxCell>
                <mxCell id="120" value="Draw" style="rounded=0;whiteSpace=wrap;html=1;" parent="1" vertex="1">
                    <mxGeometry x="134" y="337" width="120" height="60" as="geometry"/>
                </mxCell>
                <mxCell id="uoo7UDj4XoM6Ld0TAv-9-122" value="Project" style="rounded=0;whiteSpace=wrap;html=1;" parent="1" vertex="1">
                    <mxGeometry x="735" y="186" width="120" height="60" as="geometry"/>
                </mxCell>
                <mxCell id="uoo7UDj4XoM6Ld0TAv-9-123" value="Label" style="rounded=0;whiteSpace=wrap;html=1;" parent="1" vertex="1">
                    <mxGeometry x="587" y="263" width="120" height="60" as="geometry"/>
                </mxCell>
                <mxCell id="uoo7UDj4XoM6Ld0TAv-9-124" value="History" style="rounded=0;whiteSpace=wrap;html=1;" parent="1" vertex="1">
                    <mxGeometry x="585" y="186" width="120" height="60" as="geometry"/>
                </mxCell>
                <mxCell id="uoo7UDj4XoM6Ld0TAv-9-127" value="Builder" style="rounded=0;whiteSpace=wrap;html=1;" parent="1" vertex="1">
                    <mxGeometry x="587" y="414" width="120" height="60" as="geometry"/>
                </mxCell>
                <mxCell id="uoo7UDj4XoM6Ld0TAv-9-128" value="Plugins" style="rounded=0;whiteSpace=wrap;html=1;" parent="1" vertex="1">
                    <mxGeometry x="585" y="337" width="120" height="60" as="geometry"/>
                </mxCell>
            </root>
        </mxGraphModel>
    </diagram>
</mxfile>